<svg width="30" height="30" viewBox="0 0 30 30" fill="none" xmlns="http://www.w3.org/2000/svg">
<g clip-path="url(#clip0)">
<path d="M22.9054 28.4083L25.152 23.9379C25.3957 23.4521 25.2557 22.8584 24.8239 22.5313L20.2554 19.1029C19.8557 18.8029 19.3009 18.8029 18.9037 19.1066L15.9725 21.3164C12.8786 18.8261 10.6706 15.2537 9.86762 11.2806L13.1777 9.69377C13.6312 9.47613 13.8851 8.98799 13.8026 8.49507L12.8587 2.86176C12.7634 2.32231 12.3005 1.92494 11.757 1.91802L6.75424 1.85752C6.23464 1.85159 5.77292 2.2023 5.64758 2.71694C2.80698 14.3807 9.95134 26.1508 21.6333 28.9959C22.1434 29.1201 22.6706 28.877 22.9054 28.4083Z" fill="white"/>
</g>
<defs>
<clipPath id="clip0">
<rect width="24" height="24" fill="white" transform="translate(29.4985 6.20972) rotate(103.687)"/>
</clipPath>
</defs>
</svg>
