<svg width="20" height="20" viewBox="0 0 20 20" fill="#F3853A" xmlns="http://www.w3.org/2000/svg">
<path d="M16.8202 10.9167C16.6185 10.9167 16.4077 10.8525 16.206 10.8067C15.7977 10.7167 15.3963 10.5972 15.0052 10.4492C14.58 10.2945 14.1125 10.3025 13.6928 10.4717C13.2731 10.641 12.9309 10.9594 12.7319 11.3658L12.5302 11.7783C11.6374 11.2817 10.8169 10.6648 10.0919 9.94501C9.37209 9.21994 8.75522 8.39951 8.25855 7.50668L8.64355 7.25001C9.04997 7.05102 9.36843 6.70875 9.53766 6.28906C9.70689 5.86938 9.71492 5.40193 9.56021 4.97668C9.41467 4.58473 9.29524 4.18358 9.20271 3.77585C9.15688 3.57418 9.12021 3.36335 9.09271 3.15251C8.9814 2.50683 8.6432 1.92211 8.13903 1.50365C7.63486 1.08519 6.99785 0.860486 6.34271 0.870011H3.59271C3.19766 0.866302 2.80644 0.947757 2.4457 1.10883C2.08495 1.2699 1.76315 1.50682 1.50219 1.80344C1.24124 2.10006 1.04725 2.44942 0.933454 2.82775C0.819652 3.20608 0.788704 3.60448 0.842714 3.99584C1.33106 7.83611 3.08491 11.4042 5.82723 14.1366C8.56955 16.869 12.144 18.6098 15.986 19.0842H16.3344C17.0103 19.0852 17.663 18.8372 18.1677 18.3875C18.4577 18.1281 18.6894 17.8102 18.8474 17.4546C19.0054 17.0991 19.0862 16.7141 19.0844 16.325V13.575C19.0732 12.9383 18.8413 12.3252 18.4284 11.8404C18.0154 11.3556 17.447 11.0291 16.8202 10.9167ZM17.2785 16.4167C17.2784 16.5468 17.2505 16.6755 17.1968 16.794C17.143 16.9125 17.0647 17.0183 16.9669 17.1042C16.8645 17.1926 16.7447 17.2587 16.6152 17.2981C16.4858 17.3376 16.3496 17.3496 16.2152 17.3333C12.7822 16.8932 9.59343 15.3226 7.15187 12.8694C4.71031 10.4163 3.15492 7.22007 2.73105 3.78501C2.71646 3.65074 2.72924 3.5149 2.76863 3.3857C2.80802 3.25651 2.8732 3.13664 2.96021 3.03334C3.04612 2.93557 3.15185 2.8572 3.27039 2.80346C3.38894 2.74972 3.51756 2.72184 3.64771 2.72168H6.39771C6.61088 2.71693 6.81904 2.78665 6.98635 2.91883C7.15366 3.051 7.26966 3.23737 7.31438 3.44584C7.35105 3.6964 7.39688 3.9439 7.45188 4.18834C7.55777 4.67156 7.6987 5.14643 7.87355 5.60918L6.59021 6.20501C6.48049 6.25536 6.38178 6.32688 6.29978 6.41547C6.21777 6.50407 6.15406 6.60799 6.11233 6.72127C6.07059 6.83456 6.05165 6.95497 6.05657 7.07559C6.0615 7.19621 6.09021 7.31468 6.14105 7.42418C7.46031 10.25 9.73186 12.5216 12.5577 13.8408C12.7809 13.9325 13.0312 13.9325 13.2544 13.8408C13.3687 13.8 13.4738 13.7368 13.5635 13.6549C13.6531 13.5731 13.7257 13.4743 13.7769 13.3642L14.3452 12.0808C14.8191 12.2503 15.3028 12.3911 15.7935 12.5025C16.038 12.5575 16.2855 12.6033 16.536 12.64C16.7445 12.6847 16.9309 12.8007 17.0631 12.968C17.1952 13.1354 17.265 13.3435 17.2602 13.5567L17.2785 16.4167Z" fill="#F3853A"/>
</svg>
