<svg width="14" height="18" viewBox="0 0 14 18" fill="none" xmlns="http://www.w3.org/2000/svg">
<path d="M11.9997 0.666687H3.66634C2.78229 0.666687 1.93444 1.01788 1.30932 1.643C0.684197 2.26812 0.333008 3.11597 0.333008 4.00002V14C0.333008 14.8841 0.684197 15.7319 1.30932 16.357C1.93444 16.9822 2.78229 17.3334 3.66634 17.3334H11.9997C12.4417 17.3334 12.8656 17.1578 13.1782 16.8452C13.4907 16.5326 13.6663 16.1087 13.6663 15.6667V2.33335C13.6663 1.89133 13.4907 1.4674 13.1782 1.15484C12.8656 0.842282 12.4417 0.666687 11.9997 0.666687ZM1.99967 4.00002C1.99967 3.55799 2.17527 3.13407 2.48783 2.82151C2.80039 2.50895 3.22431 2.33335 3.66634 2.33335H11.9997V10.6667H3.66634C3.07887 10.6691 2.503 10.8304 1.99967 11.1334V4.00002ZM3.66634 15.6667C3.22431 15.6667 2.80039 15.4911 2.48783 15.1785C2.17527 14.866 1.99967 14.442 1.99967 14C1.99967 13.558 2.17527 13.1341 2.48783 12.8215C2.80039 12.5089 3.22431 12.3334 3.66634 12.3334H11.9997V15.6667H3.66634ZM5.33301 5.66669H8.66634C8.88735 5.66669 9.09932 5.57889 9.2556 5.42261C9.41188 5.26633 9.49967 5.05437 9.49967 4.83335C9.49967 4.61234 9.41188 4.40038 9.2556 4.2441C9.09932 4.08782 8.88735 4.00002 8.66634 4.00002H5.33301C5.11199 4.00002 4.90003 4.08782 4.74375 4.2441C4.58747 4.40038 4.49967 4.61234 4.49967 4.83335C4.49967 5.05437 4.58747 5.26633 4.74375 5.42261C4.90003 5.57889 5.11199 5.66669 5.33301 5.66669Z" fill="#F3853A"/>
</svg>
