<svg width="40" height="40" viewBox="0 0 40 40" fill="none" xmlns="http://www.w3.org/2000/svg">
<path d="M20 0.833328C17.483 0.833328 14.9906 1.32909 12.6652 2.2923C10.3398 3.25552 8.2269 4.66733 6.44711 6.44711C2.85266 10.0416 0.833321 14.9167 0.833321 20C0.816565 24.4258 2.34901 28.718 5.16499 32.1325L1.33165 35.9658C1.0657 36.2354 0.885542 36.5776 0.813909 36.9494C0.742275 37.3212 0.782377 37.7059 0.929154 38.055C1.08835 38.3999 1.34642 38.6896 1.67061 38.8876C1.9948 39.0855 2.37049 39.1826 2.74999 39.1667H20C25.0833 39.1667 29.9584 37.1473 33.5529 33.5529C37.1473 29.9584 39.1667 25.0833 39.1667 20C39.1667 14.9167 37.1473 10.0416 33.5529 6.44711C29.9584 2.85267 25.0833 0.833328 20 0.833328ZM20 35.3333H7.36915L9.15166 33.5508C9.50864 33.1917 9.70901 32.7059 9.70901 32.1996C9.70901 31.6932 9.50864 31.2074 9.15166 30.8483C6.64194 28.3414 5.07907 25.0419 4.72931 21.5118C4.37955 17.9818 5.26454 14.4398 7.23351 11.4891C9.20247 8.5384 12.1336 6.36168 15.5275 5.32978C18.9214 4.29787 22.5681 4.47462 25.8462 5.82991C29.1244 7.1852 31.8313 9.63519 33.5057 12.7625C35.18 15.8897 35.7183 19.5008 35.0288 22.9804C34.3393 26.4601 32.4647 29.593 29.7243 31.8455C26.9839 34.0979 23.5473 35.3305 20 35.3333ZM29.5833 18.0833H10.4167C9.90832 18.0833 9.42081 18.2853 9.06137 18.6447C8.70192 19.0042 8.49999 19.4917 8.49999 20C8.49999 20.5083 8.70192 20.9958 9.06137 21.3553C9.42081 21.7147 9.90832 21.9167 10.4167 21.9167H29.5833C30.0917 21.9167 30.5792 21.7147 30.9386 21.3553C31.2981 20.9958 31.5 20.5083 31.5 20C31.5 19.4917 31.2981 19.0042 30.9386 18.6447C30.5792 18.2853 30.0917 18.0833 29.5833 18.0833ZM25.75 25.75H14.25C13.7417 25.75 13.2541 25.9519 12.8947 26.3114C12.5353 26.6708 12.3333 27.1583 12.3333 27.6667C12.3333 28.175 12.5353 28.6625 12.8947 29.0219C13.2541 29.3814 13.7417 29.5833 14.25 29.5833H25.75C26.2583 29.5833 26.7458 29.3814 27.1053 29.0219C27.4647 28.6625 27.6667 28.175 27.6667 27.6667C27.6667 27.1583 27.4647 26.6708 27.1053 26.3114C26.7458 25.9519 26.2583 25.75 25.75 25.75ZM14.25 14.25H25.75C26.2583 14.25 26.7458 14.0481 27.1053 13.6886C27.4647 13.3292 27.6667 12.8417 27.6667 12.3333C27.6667 11.825 27.4647 11.3375 27.1053 10.978C26.7458 10.6186 26.2583 10.4167 25.75 10.4167H14.25C13.7417 10.4167 13.2541 10.6186 12.8947 10.978C12.5353 11.3375 12.3333 11.825 12.3333 12.3333C12.3333 12.8417 12.5353 13.3292 12.8947 13.6886C13.2541 14.0481 13.7417 14.25 14.25 14.25Z" fill="#F3853A"/>
</svg>
