<svg width="18" height="18" viewBox="0 0 18 18" fill="none" xmlns="http://www.w3.org/2000/svg">
<path d="M6.49984 8.16666C6.66466 8.16666 6.82578 8.11778 6.96282 8.02621C7.09986 7.93465 7.20667 7.8045 7.26974 7.65223C7.33281 7.49995 7.34932 7.3324 7.31716 7.17075C7.28501 7.0091 7.20564 6.86061 7.0891 6.74407C6.97255 6.62752 6.82407 6.54816 6.66242 6.516C6.50076 6.48385 6.33321 6.50035 6.18094 6.56342C6.02867 6.6265 5.89852 6.73331 5.80695 6.87035C5.71538 7.00739 5.66651 7.16851 5.66651 7.33332C5.66651 7.55434 5.7543 7.7663 5.91059 7.92258C6.06687 8.07886 6.27883 8.16666 6.49984 8.16666ZM8.99984 0.666656C7.35166 0.666656 5.7405 1.1554 4.37009 2.07108C2.99968 2.98675 1.93158 4.28824 1.30084 5.81096C0.670115 7.33368 0.505087 9.00923 0.82663 10.6257C1.14817 12.2423 1.94185 13.7271 3.10728 14.8925C4.27272 16.058 5.75758 16.8517 7.37409 17.1732C8.9906 17.4947 10.6662 17.3297 12.1889 16.699C13.7116 16.0683 15.0131 15.0002 15.9288 13.6297C16.8444 12.2593 17.3332 10.6482 17.3332 8.99999C17.3332 7.90564 17.1176 6.82201 16.6988 5.81096C16.28 4.79991 15.6662 3.88125 14.8924 3.10743C14.1186 2.33361 13.1999 1.71978 12.1889 1.30099C11.1778 0.882205 10.0942 0.666656 8.99984 0.666656ZM8.99984 15.6667C7.6813 15.6667 6.39237 15.2757 5.29604 14.5431C4.19971 13.8106 3.34523 12.7694 2.84064 11.5512C2.33606 10.333 2.20404 8.99259 2.46127 7.69939C2.71851 6.40618 3.35345 5.2183 4.2858 4.28594C5.21815 3.35359 6.40603 2.71866 7.69924 2.46142C8.99245 2.20419 10.3329 2.33621 11.5511 2.84079C12.7692 3.34538 13.8104 4.19986 14.543 5.29619C15.2755 6.39252 15.6665 7.68145 15.6665 8.99999C15.6665 10.7681 14.9641 12.4638 13.7139 13.714C12.4636 14.9643 10.768 15.6667 8.99984 15.6667ZM11.4998 9.83332H6.49984C6.27883 9.83332 6.06687 9.92112 5.91059 10.0774C5.7543 10.2337 5.66651 10.4456 5.66651 10.6667C5.66651 11.5507 6.0177 12.3986 6.64282 13.0237C7.26794 13.6488 8.11579 14 8.99984 14C9.8839 14 10.7317 13.6488 11.3569 13.0237C11.982 12.3986 12.3332 11.5507 12.3332 10.6667C12.3332 10.4456 12.2454 10.2337 12.0891 10.0774C11.9328 9.92112 11.7209 9.83332 11.4998 9.83332ZM8.99984 12.3333C8.70757 12.333 8.42052 12.2559 8.16748 12.1096C7.91444 11.9633 7.70431 11.7531 7.55817 11.5H10.4415C10.2954 11.7531 10.0852 11.9633 9.83221 12.1096C9.57917 12.2559 9.29211 12.333 8.99984 12.3333ZM11.4998 6.49999C11.335 6.49999 11.1739 6.54886 11.0369 6.64043C10.8998 6.732 10.793 6.86215 10.7299 7.01442C10.6669 7.16669 10.6504 7.33425 10.6825 7.4959C10.7147 7.65755 10.794 7.80604 10.9106 7.92258C11.0271 8.03912 11.1756 8.11849 11.3373 8.15064C11.4989 8.1828 11.6665 8.1663 11.8187 8.10322C11.971 8.04015 12.1012 7.93334 12.1927 7.7963C12.2843 7.65926 12.3332 7.49814 12.3332 7.33332C12.3332 7.11231 12.2454 6.90035 12.0891 6.74407C11.9328 6.58779 11.7209 6.49999 11.4998 6.49999Z" fill="#F3853A"/>
</svg>
