<svg width="34" height="34" viewBox="0 0 34 34" fill="none" xmlns="http://www.w3.org/2000/svg">
<path d="M1.46134 16.8303L4.11299 21.073C4.40136 21.5337 4.98141 21.7226 5.48522 21.5238L10.7885 19.4024C11.2526 19.2168 11.5409 18.7429 11.4879 18.2457L11.1233 14.593C14.8588 13.244 19.0584 13.2142 22.8701 14.593L22.5055 18.2457C22.4558 18.7462 22.7408 19.2168 23.2049 19.4024L28.5082 21.5238C29.0186 21.7226 29.5987 21.5337 29.887 21.073L32.5387 16.8303C32.8138 16.3895 32.7541 15.8128 32.3796 15.4382C23.891 6.94963 10.1223 6.93638 1.62044 15.4382C1.24921 15.8095 1.18292 16.3862 1.46134 16.8303Z" fill="white"/>
</svg>
