<svg width="20" height="20" viewBox="0 0 20 20" fill="none" xmlns="http://www.w3.org/2000/svg">
<path d="M9.99999 1.66666C8.69871 1.6676 7.41573 1.97327 6.25382 2.55919C5.09192 3.1451 4.08337 3.99498 3.30897 5.04075C2.53456 6.08652 2.01583 7.29911 1.79431 8.5814C1.57279 9.86368 1.65465 11.18 2.03332 12.425C2.02849 12.4526 2.02849 12.4808 2.03332 12.5083C2.34729 13.5182 2.85384 14.4577 3.52499 15.275L1.85832 16.9417C1.74269 17.0588 1.66436 17.2077 1.63321 17.3693C1.60207 17.531 1.6195 17.6982 1.68332 17.85C1.7541 18.0041 1.87021 18.1329 2.01613 18.2193C2.16206 18.3056 2.33085 18.3454 2.49999 18.3333H9.99999C11.7393 18.332 13.4346 17.7866 14.8483 16.7734C16.262 15.7601 17.3233 14.33 17.8833 12.6833V12.6167C18.1738 11.7745 18.3257 10.8908 18.3333 9.99999C18.3333 8.90564 18.1178 7.82201 17.699 6.81096C17.2802 5.79991 16.6664 4.88125 15.8925 4.10743C15.1187 3.33361 14.2001 2.71978 13.189 2.30099C12.178 1.8822 11.0943 1.66666 9.99999 1.66666ZM9.99999 16.6667H4.50832L4.75832 16.425L11.7667 9.40832C11.9224 9.25563 12.1319 9.17011 12.35 9.17011C12.5681 9.17011 12.7775 9.25563 12.9333 9.40832L15.95 12.4083L16.1417 12.5917C15.632 13.7995 14.7776 14.8303 13.6852 15.5551C12.5928 16.2799 11.311 16.6665 9.99999 16.6667ZM3.78332 12.3917L5.09999 11.075C5.25612 10.9198 5.46733 10.8327 5.68749 10.8327C5.90764 10.8327 6.11885 10.9198 6.27499 11.075L6.99999 11.8L4.73332 14.0833C4.33242 13.5711 4.01206 13.0006 3.78332 12.3917ZM16.625 10.725L14.125 8.22499C13.6562 7.75682 13.0208 7.49386 12.3583 7.49386C11.6958 7.49386 11.0604 7.75682 10.5917 8.22499L8.18332 10.6333L7.44999 9.90832C6.98158 9.4427 6.34795 9.18134 5.68749 9.18134C5.02702 9.18134 4.39339 9.4427 3.92499 9.90832L3.33332 10.4667C3.32502 10.3112 3.32502 10.1554 3.33332 9.99999C3.33332 8.23188 4.0357 6.53619 5.28594 5.28594C6.53618 4.0357 8.23188 3.33332 9.99999 3.33332C11.7681 3.33332 13.4638 4.0357 14.714 5.28594C15.9643 6.53619 16.6667 8.23188 16.6667 9.99999C16.6791 10.2387 16.6791 10.4779 16.6667 10.7167L16.625 10.725Z" fill="#F3853A"/>
</svg>
