<svg width="18" height="18" viewBox="0 0 18 18" fill="none" xmlns="http://www.w3.org/2000/svg">
<path d="M15.9502 6.76667L4.28354 0.933338C3.82312 0.704179 3.30322 0.622597 2.79473 0.699715C2.28625 0.776833 1.81392 1.0089 1.44215 1.36427C1.07038 1.71964 0.81725 2.18102 0.717283 2.68551C0.617317 3.19 0.675374 3.71305 0.883539 4.18334L2.88354 8.65834C2.92892 8.76653 2.95229 8.88268 2.95229 9.00001C2.95229 9.11733 2.92892 9.23348 2.88354 9.34167L0.883539 13.8167C0.714123 14.1973 0.642503 14.6142 0.675187 15.0295C0.707872 15.4448 0.843825 15.8454 1.07069 16.1948C1.29756 16.5442 1.60814 16.8313 1.97423 17.0302C2.34031 17.229 2.75027 17.3332 3.16687 17.3333C3.55707 17.3294 3.94145 17.2383 4.29187 17.0667L15.9585 11.2333C16.3724 11.0252 16.7202 10.7061 16.9633 10.3117C17.2063 9.91738 17.3351 9.46325 17.3351 9.00001C17.3351 8.53676 17.2063 8.08263 16.9633 7.68827C16.7202 7.29392 16.3724 6.97485 15.9585 6.76667H15.9502ZM15.2085 9.74167L3.54187 15.575C3.38867 15.6486 3.21665 15.6735 3.04886 15.6465C2.88107 15.6196 2.72555 15.5419 2.60313 15.424C2.48072 15.3062 2.39727 15.1537 2.36398 14.987C2.33069 14.8204 2.34915 14.6475 2.41687 14.4917L4.40854 10.0167C4.43432 9.95691 4.45658 9.8957 4.47521 9.83334H10.2169C10.4379 9.83334 10.6498 9.74554 10.8061 9.58926C10.9624 9.43298 11.0502 9.22102 11.0502 9.00001C11.0502 8.77899 10.9624 8.56703 10.8061 8.41075C10.6498 8.25447 10.4379 8.16667 10.2169 8.16667H4.47521C4.45658 8.10431 4.43432 8.0431 4.40854 7.98334L2.41687 3.50834C2.34915 3.35247 2.33069 3.17963 2.36398 3.01298C2.39727 2.84633 2.48072 2.69384 2.60313 2.57596C2.72555 2.45808 2.88107 2.38045 3.04886 2.35347C3.21665 2.32648 3.38867 2.35145 3.54187 2.42501L15.2085 8.25834C15.345 8.32827 15.4596 8.43452 15.5396 8.56538C15.6196 8.69624 15.6619 8.84663 15.6619 9.00001C15.6619 9.15338 15.6196 9.30377 15.5396 9.43463C15.4596 9.56549 15.345 9.67174 15.2085 9.74167Z" fill="white"/>
</svg>
