<svg width="11" height="10" viewBox="0 0 11 10" fill="none" xmlns="http://www.w3.org/2000/svg">
<path d="M8.39688 3.70773L5.03569 0.739272C4.74146 0.479408 4.27778 0.690385 4.27778 1.09404V2.7105C1.81076 2.91033 3.8147e-06 3.73027 3.8147e-06 6.29542C3.8147e-06 7.49544 0.75591 8.68427 1.59143 9.30581C1.85217 9.49978 2.22376 9.25634 2.12762 8.94193C1.39215 6.53642 2.20252 5.63173 4.27778 5.38695V7.03099C4.27778 7.43531 4.74184 7.64531 5.03569 7.38576L8.39688 4.41726C8.6083 4.23052 8.60859 3.89474 8.39688 3.70773ZM10.8413 4.41726L7.48014 7.38574C7.18629 7.64529 6.72223 7.43529 6.72223 7.03097V6.72203L8.7963 4.89029C8.91258 4.78763 9.00586 4.66054 9.06977 4.51769C9.13368 4.37483 9.16674 4.21956 9.16667 4.06245C9.16673 3.90537 9.13368 3.75011 9.06977 3.60727C9.00586 3.46443 8.91259 3.33736 8.79632 3.23472L6.72223 1.40296V1.09404C6.72223 0.690385 7.18591 0.479408 7.48014 0.739272L10.8413 3.70773C11.053 3.89474 11.0527 4.23052 10.8413 4.41726Z" fill="#0B2443"/>
</svg>
