<svg width="11" height="12" viewBox="0 0 11 12" fill="none" xmlns="http://www.w3.org/2000/svg">
<path d="M0.806829 3.52666L3.86016 0.473328C4.12016 0.213328 4.54683 0.213328 4.80683 0.473328C5.06683 0.733328 5.06683 1.15999 4.80683 1.41999L2.88683 3.33333H9.66683C10.0335 3.33333 10.3335 3.63333 10.3335 3.99999V10.6667C10.3335 11.0333 10.0335 11.3333 9.66683 11.3333C9.30016 11.3333 9.00016 11.0333 9.00016 10.6667V4.66666H2.88683L4.80683 6.57999C5.06683 6.83999 5.06683 7.26666 4.80683 7.52666C4.54683 7.78666 4.12016 7.78666 3.86016 7.52666L0.806829 4.47333C0.546829 4.21333 0.546829 3.78666 0.806829 3.52666Z" fill="#7E8B9A"/>
</svg>
