<svg width="40" height="35" viewBox="0 0 40 35" fill="none" xmlns="http://www.w3.org/2000/svg">
<path d="M34 6H31.44L30.8 4C30.3851 2.82646 29.6155 1.811 28.5978 1.09432C27.5801 0.377635 26.3647 -0.00479957 25.12 -1.16913e-06H14.88C13.6231 0.00235025 12.3987 0.399365 11.3795 1.13501C10.3604 1.87065 9.59802 2.90778 9.2 4.1L8.56 6.1H6C4.4087 6.1 2.88258 6.73214 1.75736 7.85736C0.632141 8.98258 0 10.5087 0 12.1V28.1C0 29.6913 0.632141 31.2174 1.75736 32.3426C2.88258 33.4679 4.4087 34.1 6 34.1H34C35.5913 34.1 37.1174 33.4679 38.2426 32.3426C39.3679 31.2174 40 29.6913 40 28.1V12.1C40.0133 11.3037 39.8679 10.5127 39.5723 9.77318C39.2767 9.03364 38.8369 8.36035 38.2784 7.79256C37.7199 7.22478 37.054 6.77386 36.3194 6.46609C35.5849 6.15833 34.7964 5.99989 34 6ZM36 28C36 28.5304 35.7893 29.0391 35.4142 29.4142C35.0391 29.7893 34.5304 30 34 30H6C5.46957 30 4.96086 29.7893 4.58579 29.4142C4.21071 29.0391 4 28.5304 4 28V12C4 11.4696 4.21071 10.9609 4.58579 10.5858C4.96086 10.2107 5.46957 10 6 10H10C10.4361 10.0228 10.8677 9.90215 11.2289 9.65657C11.59 9.41099 11.8608 9.05396 12 8.64L13.08 5.36C13.2142 4.96276 13.4698 4.61773 13.8107 4.37368C14.1517 4.12964 14.5607 3.99892 14.98 4H25.22C25.6393 3.99892 26.0483 4.12964 26.3893 4.37368C26.7302 4.61773 26.9858 4.96276 27.12 5.36L28.2 8.64C28.3283 9.02149 28.5688 9.35538 28.8899 9.59802C29.2111 9.84066 29.598 9.98076 30 10H34C34.5304 10 35.0391 10.2107 35.4142 10.5858C35.7893 10.9609 36 11.4696 36 12V28ZM20 10C18.4177 10 16.871 10.4692 15.5554 11.3482C14.2398 12.2273 13.2145 13.4767 12.609 14.9385C12.0035 16.4003 11.845 18.0089 12.1537 19.5607C12.4624 21.1126 13.2243 22.538 14.3431 23.6569C15.462 24.7757 16.8874 25.5376 18.4393 25.8463C19.9911 26.155 21.5997 25.9965 23.0615 25.391C24.5233 24.7855 25.7727 23.7601 26.6518 22.4446C27.5308 21.129 28 19.5822 28 18C28 15.8783 27.1571 13.8434 25.6569 12.3431C24.1566 10.8429 22.1217 10 20 10ZM20 22C19.2089 22 18.4355 21.7654 17.7777 21.3259C17.1199 20.8863 16.6072 20.2616 16.3045 19.5307C16.0017 18.7998 15.9225 17.9956 16.0769 17.2196C16.2312 16.4437 16.6122 15.731 17.1716 15.1716C17.731 14.6122 18.4437 14.2312 19.2196 14.0769C19.9956 13.9225 20.7998 14.0017 21.5307 14.3045C22.2616 14.6072 22.8864 15.1199 23.3259 15.7777C23.7654 16.4355 24 17.2089 24 18C24 19.0609 23.5786 20.0783 22.8284 20.8284C22.0783 21.5786 21.0609 22 20 22Z" fill="#E4E9EF"/>
</svg>
